# xmcd
#
# Track frame offsets:
#	150
#	13378
#	26736
#	51862
#	76012
#	91013
#	117235
#	130403
#	148873
#	158731
#	174360
#	185777
#	206135
#	217689
#	228500
#	246684
#	275017
#
# Disc length: 4070 seconds
#
# Revision: 1
# Processed by: cddbd v1.5.2PL0 Copyright (c) Steve Scherf et al.
# Submitted via: audiograbber 1.83.01
#
DISCID=f70fe411
DTITLE=Various Artist - Philadelphia Soul Rarities, Vol. 2
DYEAR=2009
DGENRE=Soul
TTITLE0=The 3 Ps and MFSB - Would You Believe Me
TTITLE1=Girl From NYC - Nothing But Heartaches
TTITLE2=Barbara Mason - I Am Your Woman, She Is Your Wife
TTITLE3=Dennis Rodgers and Universal Love - Bright Shining Angel
TTITLE4=Phyllis Smith - Keep On Holding On
TTITLE5=Weldon A . McDougal III and Dahlia - The Lover Man
TTITLE6=Phyllis Smith - I Need Somebody To Love
TTITLE7=Rhonda Burg - Come Share My Umbrella
TTITLE8=Irma Jackson and The Larks - Without You Baby
TTITLE9=Eddie Holman and The Larks - Been So Long
TTITLE10=Gerri Grainger - Would You Believe Me
TTITLE11=Rhonda Burg - Sweeter
TTITLE12=Gerri Grainger - Why Can't You Be Nice To Me
TTITLE13=Eddie Holman and The Larks - Never Let Me Go
TTITLE14=Rhonda Burg - Willing To Bet Cha
TTITLE15=Barbara Cole - No Other Love
TTITLE16=George Howard - A Philadelphia Groove
EXTD=
EXTT0=
EXTT1=
EXTT2=
EXTT3=
EXTT4=
EXTT5=
EXTT6=
EXTT7=
EXTT8=
EXTT9=
EXTT10=
EXTT11=
EXTT12=
EXTT13=
EXTT14=
EXTT15=
EXTT16=
PLAYORDER=
